<?xml version="1.0" encoding="UTF-8"?>
<svg id="Capa_2" data-name="Capa 2" xmlns="http://www.w3.org/2000/svg" viewBox="0 0 700 700">
  <defs>
    <style>
      .cls-1 {
        fill: none;
        stroke: #52cc03;
        stroke-miterlimit: 10;
        stroke-width: 9.13px;
      }

      .cls-2 {
        fill: #5dce10;
        stroke-width: 0px;
      }
    </style>
  </defs>
  <path class="cls-1" d="M399.13,90.88c0-30.39-25.33-30.39-25.33-30.39-18.57,0-23.64,18.1-23.64,18.1,0,0-5.07-18.1-23.64-18.1,0,0-25.33,0-25.33,30.39,0,0-1.69,13.51,15.2,33.77,0,0,8.44,11.75,33.77,26.98,25.33-15.23,33.77-26.98,33.77-26.98,16.89-20.26,15.2-33.77,15.2-33.77Z"/>
  <path class="cls-1" d="M429.35,209.81c30.39-.04,30.36-25.37,30.36-25.37-.03-18.57-18.14-23.61-18.14-23.61,0,0,18.1-5.09,18.07-23.67,0,0-.03-25.33-30.43-25.29,0,0-13.51-1.68-33.75,15.24,0,0-11.74,8.45-26.94,33.81,15.26,25.3,27.02,33.74,27.02,33.74,20.29,16.86,33.78,15.16,33.78,15.16h.03Z"/>
  <path class="cls-1" d="M271.68,111.7c-30.39-.38-30.71,24.94-30.71,24.94-.24,18.57,17.81,23.86,17.81,23.86,0,0-18.17,4.83-18.4,23.41,0,0-.32,25.33,30.08,25.71,0,0,13.48,1.86,33.97-14.76,0,0,11.86-8.3,27.4-33.43-14.9-25.51-26.56-34.11-26.56-34.11-20.05-17.14-33.57-15.62-33.57-15.62h-.01Z"/>
  <path class="cls-1" d="M301.26,231.02c.11,30.39,25.44,30.3,25.44,30.3,18.57-.07,23.57-18.2,23.57-18.2,0,0,5.13,18.09,23.71,18.02,0,0,25.33-.1,25.22-30.49,0,0,1.63-13.51-15.33-33.71,0,0-8.48-11.72-33.87-26.85-25.27,15.33-33.67,27.1-33.67,27.1-16.81,20.33-15.07,33.82-15.07,33.82h0Z"/>
  <path class="cls-2" d="M563.01,329.07c-8.35-10.47-20.09-18.23-35.21-23.27-10.88-3.44-22.08-5.96-33.61-7.57-11.54-1.59-23.15-2.38-34.81-2.38-19.1,0-37.39,1.79-54.9,5.37-15.81,3.23-29.54,7.51-41.23,12.79-.63-5.42-2.52-10.23-5.72-14.38-3.97-5.17-10.88-8.55-20.68-10.14-1.32-.27-2.79-.46-4.38-.59-1.59-.13-3.18-.2-4.78-.2-8.23,0-17.44,1.99-27.65,5.96-10.21,3.97-20.36,10.73-30.43,20.29-5.31,5.31-11.27,13.4-17.91,24.26-6.64,10.88-13.4,23.22-20.29,36.99-6.9,13.79-13.67,27.98-20.29,42.57-3.18,7.16-6.44,14.38-9.75,21.68-3.32,7.3-6.83,14.65-10.54,22.08-7.96,2.13-15.78,3.18-23.47,3.18-4.52,0-8.75-.39-12.74-1.2-4.24-.54-7.23-2.06-8.95-4.58-1.73-2.52-2.59-5.1-2.59-7.76,0-3.71,1.2-7.28,3.58-10.73,2.38-3.45,5.03-5.17,7.96-5.17,2.38,0,3.58-.79,3.58-2.38,0-2.65-1.59-3.97-4.78-3.97-5.31,0-10.41,2.38-15.31,7.16-4.9,4.78-7.35,9.95-7.35,15.51,0,8.49,3.11,14.33,9.35,17.51,6.23,3.18,13.19,4.78,20.88,4.78,4.24,0,8.61-.45,13.13-1.39,4.51-.93,8.88-1.93,13.13-2.99-2.13,3.45-4.17,6.96-6.17,10.54-1.99,3.58-4.04,7.23-6.17,10.95-2.39,4.24-6.3,10.48-11.74,18.69-5.44,8.23-11.21,14.99-17.3,20.29-2.92.27-5.76.46-8.55.59-2.79.14-5.24.73-7.35,1.79-2.92,1.86-4.38,3.71-4.38,5.56,0,3.18,2.38,4.78,7.16,4.78,1.59,0,2.79-.14,3.58-.39,1.85-.27,3.58-.86,5.17-1.79s3.31-2.06,5.17-3.38c10.61,0,28.77,3.31,54.51,9.95,5.03,1.06,13.67,3.99,25.86,8.75,12.2,4.78,25.32,9.68,39.39,14.72,7.69,2.65,16.71,6.03,27.05,10.14,10.34,4.11,21.41,7.69,33.22,10.75,11.79,3.04,23.27,4.58,34.42,4.58,15.12,0,28.1-3.72,38.98-11.14,2.11-1.32,3.92-3.65,5.37-6.96,1.45-3.32,2.18-6.96,2.18-10.95,0-3.45-.73-6.76-2.18-9.95s-3.92-5.97-7.35-8.35c-3.18-1.86-4.78-1.45-4.78,1.2,0,.79.79,1.85,2.38,3.18,2.92,2.13,4.38,4.78,4.38,7.96,0,4.24-1.99,7.57-5.97,9.95-5.04,3.45-12.33,5.17-21.88,5.17s-20.36-1.2-31.63-3.58c-11.28-2.39-19.96-4.38-26.06-5.97-21.75-5.56-43.7-11.74-65.85-18.5-22.15-6.76-44.22-11.88-66.24-15.31-5.04-.79-9.75-1.39-14.13-1.79-4.37-.41-8.42-.73-12.13-1,5.31-5.3,10.47-11.07,15.51-17.3,5.03-6.23,8.89-11.34,11.54-15.31,4.51-5.56,8.68-11.2,12.52-16.91s7.49-11.47,10.95-17.3c15.92-3.71,32.29-9.68,49.12-17.91,16.83-8.21,32.68-18.23,47.55-30.03,3.16-2.51,6.18-5.09,9.14-7.72,2.86,2.68,5.97,4.92,9.35,6.73,5.44,2.92,10,4.78,13.72,5.56,3.45.54,5.17-.13,5.17-1.99,0-1.06-.93-2.39-2.79-3.97-2.66-1.59-6.3-3.38-10.95-5.37-3.47-1.48-6.52-3.45-9.17-5.89,8.76-8.38,16.61-17.34,23.5-26.94,9.38-13.06,15.93-26.96,19.68-41.73,2.96-1.34,6-2.62,9.16-3.83,15.65-5.97,32.43-10.41,50.32-13.33,17.91-2.92,35.33-4.38,52.32-4.38,10.88,0,21.02.54,30.43,1.59s17.84,2.65,25.26,4.78c12.47,3.45,21.61,8.49,27.46,15.12,5.83,6.64,8.75,13.79,8.75,21.48,0,10.34-4.65,20.43-13.92,30.23-8.49,8.75-18.96,16.58-31.43,23.47-12.47,6.9-25.99,12.74-40.57,17.51-14.59,4.78-29.32,8.55-44.16,11.34-14.86,2.79-28.91,4.44-42.16,4.97,6.37-11.14,13.06-22.22,20.09-33.22,7.03-11,14.13-21.02,21.29-30.03s14.12-16.24,20.88-21.68c6.76-5.42,13.06-8.16,18.89-8.16.54,0,1.25.2,2.18.59.92.39,1.65.61,2.18.61.8,0,1.2-.39,1.2-1.2,0-1.06-.14-1.86-.39-2.38-.8-3.45-2.79-6.1-5.97-7.96-3.18-1.86-6.44-3.24-9.75-4.18-3.32-.93-5.76-1.39-7.37-1.39-5.04,0-10.48,1.79-16.31,5.37-5.83,3.58-11.27,8.03-16.31,13.33-5.04,5.31-9.21,10.61-12.52,15.92-3.32,5.31-5.24,9.55-5.76,12.74.52,1.06.79,2.38.79,3.97,0,1.06-.27,2.59-.79,4.58-.54,1.99-1.59,4.44-3.18,7.35-1.86,4.24-5.04,10.41-9.55,18.5-4.51,8.1-9.42,17.17-14.72,27.25-1.86,0-3.58-.07-5.17-.2s-3.45-.2-5.56-.2c-2.92,0-4.37.66-4.37,1.99,0,2.39,1.59,3.85,4.78,4.38,1.32,0,2.58.07,3.78.2,1.2.14,2.31.2,3.38.2-5.85,11.14-11.48,22.48-16.91,34.01-5.44,11.54-9.75,21.95-12.93,31.23-3.18,9.28-4.51,16.44-3.97,21.48.25,1.06,1.52,1.99,3.78,2.79,2.25.79,4.63,1.45,7.16,1.99,2.52.54,4.04.79,4.58.79,3.71,0,7.23-1.79,10.54-5.37s6.49-7.62,9.55-12.13c3.04-4.51,5.51-8.09,7.37-10.73.25-.27,1.32-1.52,3.18-3.78s2.79-4.04,2.79-5.38c0-.52-.14-.92-.41-1.2-1.86-.52-4.04.73-6.56,3.78-2.52,3.06-5.24,6.3-8.16,9.75-4.24,5.04-8.23,7.57-11.93,7.57-2.92,0-4.38-1.85-4.38-5.56,0-2.38,1.06-6.49,3.18-12.33,2.38-6.1,6.03-14.19,10.95-24.27,4.9-10.07,10.54-20.82,16.91-32.22,10.88-.25,23.13-1.06,36.8-2.38,13.65-1.32,26.58-3.31,38.78-5.97,12.72-2.92,25.39-6.69,37.99-11.34,12.59-4.63,24.13-10.2,34.61-16.71,10.47-6.49,19.09-14.12,25.85-22.88,6.76-8.75,10.54-18.55,11.34-29.44.8-11.4-2.97-22.34-11.34-32.82h.06ZM290.31,408.44c-22.27,18.3-48.14,33.81-77.57,46.55,6.1-9.28,11.34-18.03,15.71-26.26,4.38-8.21,7.62-14.45,9.75-18.69,3.18-5.56,7.09-13.06,11.74-22.47,4.63-9.41,10-19.43,16.12-30.03,6.1-10.61,12.66-20.68,19.69-30.23,7.03-9.55,14.52-17.24,22.48-23.08,9.28-6.1,18.3-9.16,27.05-9.16,4.24,0,7.3,1.2,9.16,3.58,3.44,3.18,5.17,7.57,5.17,13.13,0,3.1-.45,6.45-1.31,10.03-3.86,2.28-7.86,4.83-12.02,7.66-8.35,5.71-15.78,12.2-22.27,19.5-6.51,7.3-10.54,15.06-12.13,23.27,0,1.06.06,2.32.2,3.78.13,1.47.2,2.32.2,2.59-.27,1.06-.46,2.13-.61,3.18s-.2,2.13-.2,3.18c0,4.06.73,7.82,2.16,11.28-4.24,4.31-8.65,8.38-13.28,12.2h-.03ZM311.64,387.47c.04-.56.07-1.13.15-1.7,2.13-12.47,8.48-23.2,19.1-32.22,2.06-1.75,4.24-3.42,6.48-5.06-7.35,14.54-15.93,27.53-25.72,38.98h-.01Z"/>
</svg>